#!OML:ASF H:\MichaelJackson\Top Level 1\Subject 1\Session 1\male.ASF
:FULLY-SPECIFIED
:DEGREES
475
root -14.7667 16.6311 6.02636 8.41027 -11.9626 -9.98463
lowerback -0.885677 3.20897 3.54642
upperback 0.450385 4.21581 1.68699
thorax 1.0863 2.12407 -0.169537
lowerneck -8.82687 -1.05012 3.37352
upperneck 6.7622 -1.85869 0.359547
head 3.75146 -0.810702 -0.590309
rclavicle 3.60794e-014 -1.90833e-014
rhumerus -52.6834 15.5793 -89.4639
rradius 67.9599
rwrist 6.69167
rhand -21.856 -28.1379
rfingers 7.12502
rthumb 4.54781 -778.069
lclavicle 3.60794e-014 -1.90833e-014
lhumerus -49.0111 -3.85086 94.3732
lradius 42.6335
lwrist -5.53527
lhand -7.55816 9.20582
lfingers 7.12502
lthumb 18.3339 38.3618
rfemur 2.30642 -7.25198 26.1711
rtibia 29.0476
rfoot -23.4023 14.0029
rtoes 1.42247
lfemur -42.7754 15.948 -14.0006
ltibia 33.9772
lfoot -3.3989 7.3562
ltoes 34.4475
476
root -14.7415 16.6239 6.17664 8.15336 -11.8252 -10.0863
lowerback -0.682108 3.23597 3.40154
upperback 0.432422 4.26346 1.82784
thorax 0.933923 2.14473 0.0414067
lowerneck -8.88033 -1.12728 3.40124
upperneck 6.83066 -1.96523 0.319305
head 3.78379 -0.863272 -0.616086
rclavicle -3.97569e-015 -2.10712e-014
rhumerus -53.5406 18.6448 -90.0444
rradius 68.6415
rwrist 6.18737
rhand -22.8913 -29.2895
rfingers 7.12502
rthumb 3.54809 -779.24
lclavicle -3.97569e-015 -2.10712e-014
lhumerus -49.0754 -3.39188 94.2558
lradius 42.799
lwrist -5.07233
lhand -9.20465 9.14203
lfingers 7.12502
lthumb 16.7494 38.4395
rfemur 1.41029 -8.79235 25.3457
rtibia 31.9785
rfoot -21.4376 17.4114
rtoes 5.42625
lfemur -42.6684 16.2699 -14.0417
ltibia 35.0574
lfoot -3.34727 6.60836
ltoes 35.3488
477
root -14.7115 16.6191 6.32622 7.90245 -11.7413 -10.1985
lowerback -0.470509 3.2633 3.29247
upperback 0.414923 4.31124 1.97222
thorax 0.779496 2.16591 0.235371
lowerneck -8.9449 -1.18819 3.45548
upperneck 6.93368 -2.05374 0.271181
head 3.83062 -0.90597 -0.648716
rclavicle 6.41081e-015 1.15295e-014
rhumerus -54.6341 22.1049 -90.71
rradius 69.4778
rwrist 5.87686
rhand -23.8278 -30.1078
rfingers 7.12502
rthumb 2.6437 -780.071
lclavicle 6.41081e-015 1.15295e-014
lhumerus -49.189 -2.98363 94.1959
lradius 42.9882
lwrist -4.353
lhand -10.9849 9.18519
lfingers 7.12502
lthumb 15.0351 38.6193
rfemur 0.254221 -10.4262 24.3979
rtibia 35.247
rfoot -18.3213 21.1211
rtoes 10.6711
lfemur -42.4881 16.4691 -14.0218
ltibia 36.0859
lfoot -3.40795 6.10694
ltoes 35.9523
478
root -14.6763 16.6163 6.47448 7.66766 -11.727 -10.2966
lowerback -0.252501 3.29046 3.21266
upperback 0.388798 4.35912 2.10531
thorax 0.615318 2.18738 0.400617
lowerneck -9.03597 -1.22455 3.55121
upperneck 7.0909 -2.11478 0.20141
head 3.90203 -0.933972 -0.695359
rclavicle -2.49972e-014 -1.94809e-014
rhumerus -55.9772 25.8688 -91.4272
rradius 70.5022
rwrist 5.82253
rhand -24.3857 -30.4213
rfingers 7.12502
rthumb 2.10483 -780.391
lclavicle -2.49972e-014 -1.94809e-014
lhumerus -49.3792 -2.66131 94.1984
lradius 43.2361
lwrist -3.39233
lhand -12.8227 9.3393
lfingers 7.12502
lthumb 13.2641 38.8972
rfemur -1.17857 -12.0685 23.3334
rtibia 38.8116
rfoot -13.8406 24.7019
rtoes 16.7139
lfemur -42.2446 16.5154 -13.9659
ltibia 37.0509
lfoot -3.58748 5.88265
ltoes 36.2819
479
root -14.6357 16.6153 6.62066 7.45146 -11.7965 -10.3554
lowerback -0.0327179 3.31729 3.15148
upperback 0.355503 4.40688 2.21286
thorax 0.445882 2.209 0.528837
lowerneck -9.14463 -1.23573 3.68076
upperneck 7.29664 -2.14662 0.114868
head 3.99463 -0.946482 -0.752873
rclavicle -1.80397e-014 3.97569e-015
rhumerus -57.5384 29.8104 -92.1457
rradius 71.7207
rwrist 6.07126
rhand -24.4698 -29.9074
rfingers 7.12502
rthumb 2.02361 -779.878
lclavicle -1.80397e-014 3.97569e-015
lhumerus -49.6553 -2.45936 94.2643
lradius 43.5756
lwrist -2.19631
lhand -14.6248 9.64588
lfingers 7.12502
lthumb 11.5266 39.3089
rfemur -2.89268 -13.6191 22.1696
rtibia 42.6146
rfoot -8.02026 27.6551
rtoes 22.7338
lfemur -41.94 16.3867 -13.8994
ltibia 37.9466
lfoot -3.90358 5.94584
ltoes 36.3992
480
root -14.5903 16.6156 6.76386 7.2518 -11.9668 -10.3448
lowerback 0.193339 3.34593 3.08749
upperback 0.318176 4.45753 2.28275
thorax 0.27136 2.23219 0.619355
lowerneck -9.27113 -1.21965 3.83815
upperneck 7.53821 -2.14537 0.00907417
head 4.1044 -0.942038 -0.820755
rclavicle 3.43897e-014 -1.98785e-014
rhumerus -59.2355 33.8147 -92.7846
rradius 73.1171
rwrist 6.6241
rhand -23.9675 -28.3238
rfingers 7.12502
rthumb 2.50872 -778.289
lclavicle 3.43897e-014 -1.98785e-014
lhumerus -50.018 -2.40798 94.3936
lradius 44.0264
lwrist -0.785814
lhand -16.3346 10.0475
lfingers 7.12502
lthumb 9.87735 39.7958
rfemur -4.86818 -14.9567 20.9164
rtibia 46.5871
rfoot -1.24233 29.5936
rtoes 27.9139
lfemur -41.5774 16.0793 -13.858
ltibia 38.7675
lfoot -4.36245 6.28233
ltoes 36.3446
481
root -14.5409 16.6165 6.90312 7.06024 -12.2406 -10.2369
lowerback 0.431124 3.37891 2.99906
upperback 0.282662 4.51421 2.30654
thorax 0.0938164 2.25852 0.675313
lowerneck -9.40002 -1.1758 4.0128
upperneck 7.78492 -2.10712 -0.122559
head 4.21769 -0.919922 -0.898582
rclavicle 1.24091e-013 3.85642e-014
rhumerus -60.9496 37.7593 -93.2364
rradius 74.6503
rwrist 7.42183
rhand -22.8133 -25.572
rfingers 7.12502
rthumb 3.62343 -775.521
lclavicle 1.24091e-013 3.85642e-014
lhumerus -50.4481 -2.51915 94.5798
lradius 44.5828
lwrist 0.78913
lhand -17.8387 10.5953
lfingers 7.12502
lthumb 8.42602 40.4072
rfemur -7.09034 -16 19.5888
rtibia 50.6471
rfoot 5.94395 30.4201
rtoes 31.6953
lfemur -41.163 15.5998 -13.878
ltibia 39.5118
lfoot -4.96957 6.87654
ltoes 36.24
482
root -14.4887 16.6179 7.03776 6.85888 -12.6195 -10.0158
lowerback 0.692231 3.41798 2.86894
upperback 0.260272 4.57881 2.2843
thorax -0.0829228 2.28902 0.705883
lowerneck -9.52171 -1.1019 4.1926
upperneck 8.00795 -2.02503 -0.291297
head 4.3226 -0.878308 -0.987094
rclavicle -1.86361e-014 -1.55052e-014
rhumerus -62.5046 41.5812 -93.3678
rradius 76.2487
rwrist 8.29702
rhand -20.9458 -21.7399
rfingers 7.12502
rthumb 5.42672 -771.65
lclavicle -1.86361e-014 -1.55052e-014
lhumerus -50.9261 -2.78983 94.819
lradius 45.2345
lwrist 2.48492
lhand -19.1351 11.1538
lfingers 7.12502
lthumb 7.17474 41.0121
rfemur -9.52255 -16.6783 18.1985
rtibia 54.7064
rfoot 13.0863 30.2666
rtoes 34.082
lfemur -40.6873 14.9646 -13.9796
ltibia 40.1761
lfoot -5.69573 7.69699
ltoes 36.1256
483
root -14.4349 16.62 7.16726 6.63356 -13.1103 -9.66947
lowerback 0.982114 3.4689 2.67919
upperback 0.260422 4.65804 2.21853
thorax -0.253848 2.32717 0.723312
lowerneck -9.63107 -0.995971 4.38276
upperneck 8.18065 -1.89334 -0.525852
head 4.40861 -0.816301 -1.09622
rclavicle -1.54555e-014 9.14409e-015
rhumerus -63.7159 45.2195 -93.0341
rradius 77.847
rwrist 8.98424
rhand -18.3199 -17.0897
rfingers 7.12502
rthumb 7.96159 -766.92
lclavicle -1.54555e-014 9.14409e-015
lhumerus -51.4268 -3.20684 95.1025
lradius 45.9556
lwrist 4.23611
lhand -20.1804 11.6493
lfingers 7.12502
lthumb 6.16568 41.5396
rfemur -12.1288 -16.9367 16.7436
rtibia 58.6735
rfoot 19.9079 29.3615
rtoes 35.2747
lfemur -40.1469 14.2255 -14.1905
ltibia 40.7566
lfoot -6.47677 8.69364
ltoes 35.9157
484
root -14.3805 16.6229 7.29128 6.37335 -13.7189 -9.21403
lowerback 1.30911 3.53959 2.4351
upperback 0.286379 4.76183 2.11757
thorax -0.420637 2.37798 0.732385
lowerneck -9.69947 -0.860486 4.58068
upperneck 8.27954 -1.71281 -0.829352
head 4.46171 -0.735057 -1.22597
rclavicle 5.63555e-014 -1.27222e-014
rhumerus -64.3613 48.6154 -92.074
rradius 79.3537
rwrist 9.13201
rhand -14.7824 -11.9875
rfingers 7.12502
rthumb 11.3746 -761.659
lclavicle 5.63555e-014 -1.27222e-014
lhumerus -51.9324 -3.73033 95.4042
lradius 46.7124
lwrist 5.9345
lhand -20.9126 12.0294
lfingers 7.12502
lthumb 5.45875 41.9391
rfemur -14.8757 -16.7443 15.2425
rtibia 62.4668
rfoot 26.2994 27.8575
rtoes 35.5861
lfemur -39.5367 13.4359 -14.5018
ltibia 41.2508
lfoot -7.2639 9.83396
ltoes 35.7049
485
root -14.3262 16.6275 7.40978 6.07139 -14.4401 -8.67045
lowerback 1.67795 3.62994 2.14453
upperback 0.344645 4.8892 1.99302
thorax -0.579856 2.44099 0.740066
lowerneck -9.67454 -0.696087 4.8049
upperneck 8.61495 -1.46933 -1.32073
head 4.11228 -0.640446 -1.27545
rclavicle 4.81556e-014 2.10712e-014
rhumerus -64.1669 51.744 -90.2959
rradius 80.6722
rwrist 8.33029
rhand -10.042 -6.9468
rfingers 7.12502
rthumb 15.9432 -756.311
lclavicle 4.81556e-014 2.10712e-014
lhumerus -52.4162 -4.30147 95.6921
lradius 47.466
lwrist 7.44827
lhand -21.332 12.1905
lfingers 7.12502
lthumb 5.05378 42.1102
rfemur -17.7542 -16.114 13.7215
rtibia 66.0066
rfoot 32.0537 25.934
rtoes 35.2925
lfemur -38.8581 12.6379 -14.8997
ltibia 41.6613
lfoot -8.03708 11.0705
ltoes 35.521
